<?xml version="1.0" encoding="UTF-8" standalone="no"?>
<!-- Created with Inkscape (http://www.inkscape.org/) -->

<svg
   width="211.37944mm"
   height="41.656853mm"
   viewBox="0 0 211.37944 41.656853"
   version="1.1"
   id="svg1"
   xml:space="preserve"
   inkscape:version="1.4.4 (dcaf3e7, 2026-05-05)"
   sodipodi:docname="gapit_logo.svg"
   xmlns:inkscape="http://www.inkscape.org/namespaces/inkscape"
   xmlns:sodipodi="http://sodipodi.sourceforge.net/DTD/sodipodi-0.dtd"
   xmlns="http://www.w3.org/2000/svg"
   xmlns:svg="http://www.w3.org/2000/svg"><sodipodi:namedview
     id="namedview1"
     pagecolor="#ffffff"
     bordercolor="#000000"
     borderopacity="0.25"
     inkscape:showpageshadow="2"
     inkscape:pageopacity="0.0"
     inkscape:pagecheckerboard="0"
     inkscape:deskcolor="#d1d1d1"
     inkscape:document-units="mm"
     inkscape:zoom="3.6737411"
     inkscape:cx="240.62664"
     inkscape:cy="50.765689"
     inkscape:window-width="2560"
     inkscape:window-height="1324"
     inkscape:window-x="0"
     inkscape:window-y="30"
     inkscape:window-maximized="1"
     inkscape:current-layer="layer1" /><defs
     id="defs1" /><g
     inkscape:label="Layer 1"
     inkscape:groupmode="layer"
     id="layer1"
     transform="translate(-42.301648,-62.419725)"><path
       id="path1"
       style="fill:#1cb7fb;fill-opacity:1"
       d="m 67.234077,62.419893 c -5.813832,-0.01953 -10.615936,1.666013 -13.507186,4.795057 -0.595015,0.64395 -2.015153,2.699604 -2.62413,3.798734 -0.963662,1.73929 -1.656715,4.204604 -2.280997,8.114234 -0.270738,1.6953 -0.273491,8.397783 -0.0041,9.789583 0.928527,4.79781 1.425045,6.240111 2.970361,8.628931 1.561284,2.41349 3.929743,4.297358 6.923608,5.506638 1.307178,0.52799 2.524549,0.79432 4.329452,0.94775 3.688921,0.31358 7.460247,-0.34283 11.688175,-2.0345 l 0.747242,-0.29921 v -9.583394 c 0,-7.00773 -0.05438,-9.617151 -0.202055,-9.708451 -0.111077,-0.06865 -1.321375,-0.192536 -2.689759,-0.275436 -4.56257,-0.2765 -4.244624,-0.28852 -4.308264,0.15968 -0.03719,0.26192 0.05312,0.433278 0.264584,0.501778 1.922733,0.62248 2.610551,1.310816 3.361035,3.364136 0.269412,0.73712 0.310725,1.503695 0.309025,5.702495 -0.0016,4.12585 -0.04773,4.994158 -0.309542,5.812048 -0.489705,1.52984 -1.352106,2.218223 -3.733106,2.978114 -1.146222,0.3658 -5.555301,0.39444 -6.979418,0.0455 -2.140533,-0.52453 -4.544564,-2.067958 -5.730917,-3.679358 -0.338103,-0.45924 -0.899777,-1.429891 -1.247986,-2.157491 -0.91582,-1.91367 -0.845831,-1.717024 -1.462443,-4.145484 -0.488286,-1.92306 -0.775151,-5.508416 -0.676961,-8.466666 0.255911,-7.71033 2.241597,-12.271675 6.415629,-14.737085 1.924714,-1.13684 3.199757,-1.538158 5.966044,-1.878438 1.965074,-0.24175 2.557791,-0.249831 4.144967,-0.05736 2.703077,0.3278 4.935362,1.131947 6.614583,2.383317 1.727652,1.28746 3.240884,3.457365 3.783749,5.426025 0.196796,0.71367 0.295718,0.837675 0.670243,0.837675 h 0.439766 l -0.129708,-4.718058 c -0.08803,-3.19241 -0.195266,-4.76125 -0.330729,-4.85035 -0.355441,-0.23373 -3.107247,-1.013486 -4.786271,-1.356506 -0.582083,-0.11892 -1.37566,-0.282703 -1.763716,-0.363803 -0.388055,-0.08109 -1.877847,-0.246322 -3.310393,-0.366902 -0.869212,-0.07316 -1.720201,-0.110382 -2.550748,-0.113172 z m 186.447013,0.266134 -0.95188,0.120923 c -0.52358,0.06646 -5.19522,0.157905 -10.38128,0.203605 -6.3375,0.0558 -9.50399,0.145115 -9.65729,0.272335 -0.18407,0.15275 -0.22841,4.030322 -0.22841,20.084562 v 19.895428 l 1.32189,0.12402 c 0.72686,0.0681 2.45327,0.18342 3.83645,0.25632 3.3882,0.17848 3.57343,0.16576 3.57343,-0.24443 0,-0.24529 -0.26464,-0.43449 -0.98599,-0.70539 -2.47769,-0.93049 -3.76266,-2.898213 -4.21524,-6.455933 -0.12681,-0.9966 -0.17376,-6.31941 -0.14056,-15.875 l 0.0496,-14.375866 3.61631,-0.05168 c 4.99107,-0.07151 7.95218,0.171301 9.28781,0.761711 0.56708,0.25067 1.25423,0.669689 1.52755,0.931209 0.68652,0.65688 1.51948,2.475076 1.73581,3.788916 0.32253,1.9588 0.30668,1.917868 0.71624,1.857768 0.24543,-0.036 0.43312,-0.242087 0.5333,-0.584977 0.085,-0.29104 0.20138,-2.660895 0.25838,-5.266345 z m -114.6669,0.04496 c -0.35919,0.0083 -0.39067,0.09229 -0.39067,0.301273 0,0.44143 0.23506,0.621089 1.21698,0.931209 1.0822,0.34179 2.52025,1.703657 3.0179,2.857707 0.89827,2.08305 0.91069,2.266185 1.00149,14.698845 0.10151,13.90317 -0.0305,16.149781 -1.07435,18.283121 -0.74555,1.523668 -2.70749,3.118738 -3.85352,3.133138 -0.21088,0.003 -0.3085,0.14412 -0.3085,0.44649 0,0.42704 0.0325,0.43982 0.92604,0.35812 0.50933,-0.0466 1.91839,-0.12936 3.13107,-0.18346 1.21267,-0.0541 2.7403,-0.1471 3.39514,-0.2067 l 1.19063,-0.10852 V 83.357633 c 0,-15.69691 -0.0461,-19.922381 -0.22014,-20.060791 -0.12126,-0.09643 -1.41128,-0.226054 -2.86649,-0.288354 -1.45521,-0.06233 -3.30068,-0.162092 -4.10105,-0.221692 -0.51566,-0.0384 -0.84902,-0.06082 -1.06453,-0.05581 z m 63.84623,0.0124 c -0.29741,9.21e-4 -0.73945,0.042 -1.39785,0.123507 -0.94611,0.11715 -2.76345,0.212286 -4.03851,0.211356 -1.95229,-0.0014 -2.33497,0.04202 -2.42517,0.276986 -0.0589,0.15345 -0.10749,9.160072 -0.10749,20.014282 0,19.330822 0.007,19.738282 0.34158,19.917132 0.18765,0.10043 1.19968,0.19167 2.24896,0.20257 1.04928,0.0109 2.66161,0.0788 3.58324,0.1509 2.15187,0.16835 2.36688,0.15152 2.43138,-0.18707 0.0366,-0.19223 -0.30269,-0.45573 -1.07539,-0.83613 -1.99964,-0.98442 -3.43367,-2.94354 -3.8685,-5.28443 -0.11577,-0.62322 -0.21274,-5.666153 -0.25424,-13.229683 -0.074,-13.47525 0.0164,-15.141969 0.9281,-17.140039 0.68165,-1.49386 2.52734,-3.181202 3.4799,-3.181202 0.13435,0 0.38973,-0.160247 0.5674,-0.356567 0.24727,-0.27324 0.27428,-0.405787 0.11576,-0.564307 -0.0793,-0.07919 -0.23176,-0.118226 -0.52917,-0.117305 z m -43.09039,0.03152 c -0.76697,-0.0304 -1.59527,-0.02263 -2.50631,0.01912 -1.37529,0.06302 -3.53232,0.161174 -4.7935,0.218074 -1.26118,0.05694 -2.39228,0.183437 -2.51355,0.281637 -0.17399,0.14085 -0.22065,4.373693 -0.22065,20.089213 v 19.909899 l 1.27899,0.0145 c 0.70335,0.008 2.62803,0.11624 4.27726,0.24133 1.64924,0.12509 3.13751,0.23793 3.30729,0.25063 0.21778,0.0162 0.30851,-0.10692 0.30851,-0.41806 0,-0.30372 -0.0968,-0.4408 -0.3111,-0.4408 -0.62949,0 -2.20638,-0.70264 -2.95641,-1.31723 -0.48451,-0.39702 -0.972,-1.04084 -1.30999,-1.730136 -1.01129,-2.06237 -1.08658,-2.586209 -1.18959,-8.285799 -0.0558,-3.0902 -0.0291,-5.247742 0.0651,-5.247742 0.088,0 0.59323,0.111441 1.12293,0.247531 3.27053,0.84023 6.69326,0.826823 9.4511,-0.03721 2.61522,-0.81935 5.50658,-3.289887 6.64507,-5.678207 0.87946,-1.84495 1.18329,-3.33655 1.18029,-5.78776 -0.004,-3.25967 -0.77365,-5.736716 -2.50734,-8.072376 -0.96697,-1.30274 -1.96951,-2.125811 -3.48712,-2.863391 -1.78962,-0.869782 -3.54009,-1.302008 -5.84099,-1.393196 z m 49.14429,0.03669 -0.11886,2.557983 c -0.0654,1.40671 -0.21148,3.311704 -0.32505,4.233334 -0.1136,0.92163 -0.17912,2.112253 -0.14572,2.645833 0.0558,0.89154 0.0951,0.969966 0.48679,0.969966 0.36595,0 0.47433,-0.149783 0.76378,-1.058333 0.81911,-2.57116 1.53666,-3.984219 2.46135,-4.845699 1.21881,-1.1355 3.6197,-1.460994 10.19524,-1.380794 l 4.3217,0.05271 0.0558,13.935067 c 0.0597,14.88614 9e-4,16.31484 -0.77721,18.83916 -0.62374,2.023486 -1.79289,3.263776 -3.77652,4.005446 -0.80163,0.29971 -0.95198,0.44274 -0.82165,0.78238 0.0803,0.20917 0.27416,0.25824 0.77308,0.19534 0.36626,-0.0462 1.77701,-0.12832 3.13521,-0.18242 1.35819,-0.0541 2.96564,-0.14754 3.57239,-0.20774 l 1.10329,-0.10955 -0.045,-20.04013 -0.0444,-20.039603 -9.26042,-0.131258 c -5.09323,-0.0722 -9.77652,-0.151417 -10.40711,-0.176217 z m -111.654169,0.0062 c -2.177421,-0.0056 -2.292884,0.01177 -2.292884,0.346749 0,0.29331 0.163367,0.376326 0.969967,0.490926 2.605801,0.37023 4.145006,0.992354 5.815666,2.351794 1.13129,0.92055 2.35716,2.323898 2.74608,3.143478 0.26884,0.56653 0.26109,0.589788 -0.98908,3.025138 -0.69292,1.3498 -2.1748,4.240054 -3.29282,6.422864 -1.118044,2.18281 -2.567602,5.000453 -3.221513,6.261633 -0.6539,1.26118 -2.162793,4.197877 -3.353283,6.526217 -1.19049,2.32833 -2.312145,4.444012 -2.492355,4.701522 -0.18022,0.25751 -0.327628,0.522061 -0.327628,0.587561 0,0.24613 -2.482216,3.386531 -3.296957,4.171331 -0.466645,0.44949 -1.344448,1.15117 -1.950785,1.55907 -1.022235,0.68769 -1.271231,1.01235 -0.991154,1.29243 l 5.17e-4,-5.2e-4 c 0.109031,0.10903 2.194488,0.0208 4.827612,-0.20412 0.72761,-0.0619 1.941944,-0.0625 2.698544,-0.001 0.75661,0.0614 2.18536,0.14113 3.175,0.17673 1.61261,0.0579 1.799373,0.033 1.799373,-0.24029 0,-0.17968 -0.467552,-0.61441 -1.138432,-1.05834 -1.42508,-0.94302 -1.936483,-1.83918 -1.941483,-3.399277 -0.0017,-0.58208 0.113911,-1.444069 0.256831,-1.915129 0.30691,-1.01163 4.622646,-9.66715 4.914946,-9.85728 0.11055,-0.0719 3.336517,-0.111766 7.168557,-0.08837 l 6.96753,0.04237 1.14618,2.30787 c 3.05019,6.13855 3.59909,7.453478 4.05815,9.726538 0.18003,0.893418 0.17812,1.205958 -0.009,1.675868 -0.42385,1.06266 -0.85039,1.50385 -1.77715,1.8371 -0.89764,0.3228 -1.22787,0.65675 -0.92863,0.93999 0.17408,0.16478 8.32726,-0.13653 8.65529,-0.31987 0.14834,-0.0829 0.0383,-0.47483 -0.37879,-1.35134 -0.32305,-0.67881 -0.98311,-2.067482 -1.46709,-3.086122 -0.82336,-1.73295 -1.49636,-3.138223 -4.13722,-8.642883 -1.03465,-2.15665 -1.75231,-3.658914 -3.70933,-7.761284 -0.53223,-1.11566 -1.5824,-3.298637 -2.33371,-4.850867 -0.7513,-1.55222 -1.72405,-3.576286 -2.16163,-4.497916 -0.43758,-0.92164 -1.17254,-2.469444 -1.63297,-3.439584 -2.13384,-4.496 -3.00068,-6.22071 -3.21066,-6.38669 -0.26205,-0.20714 -4.80622,-0.477275 -8.165389,-0.486275 z m 87.455129,0.01447 c -0.72843,0.01544 -0.86634,0.107438 -0.90124,0.286288 -0.0393,0.20158 0.11069,0.376566 0.4377,0.510046 1.38853,0.56676 1.75518,0.777851 2.42724,1.397331 0.81577,0.75196 1.37574,1.760151 1.82521,3.286621 0.27349,0.92884 0.30179,2.299097 0.30179,14.519527 0,13.98586 0.001,13.965791 -0.72605,16.197461 -0.56594,1.736409 -1.5488,2.835619 -3.19826,3.577049 -0.97039,0.4362 -1.30052,0.78255 -1.01595,1.06712 0.0913,0.0913 2.62396,0.019 6.17533,-0.17622 l 2.11667,-0.11627 V 83.272884 63.164551 l -2.99879,-0.159164 c -2.39654,-0.127325 -3.71523,-0.188552 -4.44365,-0.173116 z m -74.44611,0.247014 c -1.87825,-0.0031 -1.88386,0.0031 -1.20922,1.463476 0.59827,1.29502 3.38284,7.119096 5.6658,11.850956 0.60848,1.26118 1.55988,3.24539 2.1146,4.40955 0.55472,1.16417 1.34923,2.831037 1.76527,3.704167 0.41604,0.87312 1.32878,2.778133 2.02881,4.233333 0.70004,1.45521 1.65136,3.439927 2.11357,4.410067 0.46221,0.97014 1.43019,2.994207 2.15129,4.497917 0.7211,1.50372 1.61994,3.388213 1.99729,4.187863 0.80935,1.7151 0.45852,1.58351 4.7594,1.78955 1.64924,0.0791 3.1293,0.15552 3.28869,0.17002 0.36802,0.0334 0.56069,-0.44173 0.2775,-0.6842 -0.11795,-0.10098 -0.67855,-0.45774 -1.24592,-0.79271 -1.58484,-0.93566 -2.95493,-2.21743 -4.38164,-4.100532 -2.23567,-2.95086 -2.82567,-3.982118 -5.62653,-9.830408 -2.31833,-4.84078 -3.46621,-7.22645 -4.96456,-10.31875 -1.25392,-2.58782 -2.29117,-4.780482 -3.05769,-6.464722 -0.13913,-0.3057 -0.2527,-0.599239 -0.2527,-0.651639 0,-0.05244 -0.43972,-1.032592 -0.9772,-2.178162 -0.53749,-1.14558 -1.04541,-2.24148 -1.12861,-2.43551 -0.0832,-0.19403 -0.27086,-0.630417 -0.41703,-0.969967 -0.14617,-0.33954 -0.39545,-0.932065 -0.55397,-1.316715 -0.15853,-0.38466 -0.38428,-0.760391 -0.50178,-0.835091 -0.11751,-0.07467 -0.94799,-0.136493 -1.84537,-0.138493 z m 60.25162,1.616955 c -0.20087,0.008 -0.16458,0.19604 0.2434,0.630969 1.07004,1.1407 2.37792,3.606967 2.89078,5.451347 1.00363,3.60928 0.63281,8.506226 -0.84388,11.141956 -0.5271,0.94084 -1.47487,2.333076 -1.99006,2.923336 -0.24604,0.28187 -0.44751,0.532255 -0.44751,0.556555 0,0.14003 0.92077,-0.239737 1.84433,-0.760677 2.40896,-1.35878 3.56455,-2.551415 4.65656,-4.806425 0.78013,-1.61098 1.08366,-2.944506 1.08366,-4.756816 0,-3.07761 -1.07321,-5.703678 -3.16157,-7.734928 -1.35062,-1.313687 -3.72036,-2.667352 -4.27571,-2.645317 z M 158.6471,65.54528 c 1.76818,0.0076 3.49425,0.341936 4.77645,0.950846 3.04086,1.4441 4.65708,4.448977 4.65708,8.659937 0,1.60454 -0.0731,2.145357 -0.41754,3.090767 -1.18867,3.26296 -2.9329,4.912127 -6.04615,5.716447 -0.70724,0.18268 -1.74924,0.271499 -2.99878,0.255799 -2.18309,-0.02739 -2.29821,-0.04233 -4.18476,-0.541053 l -1.38803,-0.366902 0.0961,-7.162871 c 0.0771,-5.73417 0.15147,-7.35255 0.37104,-8.11475 0.53052,-1.8416 0.86069,-2.075697 3.36724,-2.384867 0.58382,-0.07201 1.17794,-0.105872 1.76733,-0.103353 z M 50.355003,66.93693 c -0.155847,0.0012 -0.640249,0.278154 -1.198893,0.722954 -2.787173,2.21918 -5.27948,6.075263 -6.157763,9.527583 -0.7258,2.85294 -0.917897,7.505006 -0.417546,10.119796 0.330805,1.72876 1.176399,4.277518 1.874821,5.652368 0.740952,1.45857 2.236436,3.394451 3.628719,4.696871 0.649179,0.60727 1.208942,1.01838 1.243852,0.91364 0.03491,-0.10473 -0.174675,-0.652627 -0.465605,-1.217497 -2.073399,-4.02576 -2.75487,-7.552917 -2.75487,-14.255977 0,-4.26128 0.152617,-5.603897 1.002522,-8.819617 0.263105,-0.99549 1.380344,-3.954694 1.731678,-4.586284 0.161898,-0.29104 0.514247,-0.925696 0.782897,-1.410766 0.268651,-0.48507 0.569427,-0.981505 0.668177,-1.102775 0.135408,-0.166289 0.143646,-0.240917 0.06201,-0.240296 z m 56.172797,6.017204 c 0.0553,0.0051 0.40613,0.657965 0.78135,1.455208 1.34806,2.86424 3.12161,6.594881 3.79253,7.977291 0.37544,0.77357 0.64491,1.467759 0.59841,1.543059 -0.13968,0.22602 -10.82362,0.169906 -10.82362,-0.05684 0,-0.1066 0.70696,-1.555015 1.57096,-3.218925 0.86398,-1.66391 2.11351,-4.077034 2.77709,-5.362464 0.66357,-1.28543 1.25008,-2.337325 1.30328,-2.337325 z m -22.037929,8.853723 c -0.103342,0.0053 -0.238118,0.0216 -0.414445,0.04548 -0.412309,0.05583 -1.838227,0.173682 -3.168799,0.261482 -1.330571,0.08783 -2.501524,0.210335 -2.601908,0.272335 -0.204085,0.12613 -0.268023,17.939646 -0.06511,18.142556 0.170125,0.17013 0.213583,0.16213 1.794206,-0.33538 l 1.439705,-0.453196 v -5.729883 c 0,-4.64995 0.05424,-5.968776 0.286805,-6.999056 0.466987,-2.06883 1.182294,-3.203243 2.579687,-4.089673 0.313116,-0.19863 0.484725,-0.460443 0.484725,-0.738973 0,-0.304493 -0.02484,-0.391462 -0.334863,-0.375688 z" /></g></svg>
